erDiagram
    USER ||--o{ ORDER : places
    USER {
        int id PK
        string name
        string email
    }
    ORDER ||--|{ LINE_ITEM : contains
    ORDER {
        int id PK
        int user_id FK
        date created
        string status
    }
    LINE_ITEM {
        int id PK
        int order_id FK
        int product_id FK
        int quantity
    }
    PRODUCT ||--o{ LINE_ITEM : "included in"
    PRODUCT {
        int id PK
        string name
        float price
    }
